<?xml version="1.0" encoding="UTF-8"?>
<svg version="1.1" xmlns="http://www.w3.org/2000/svg" width="693" height="360">
<path d="M0 0 C5.78775377 -0.7791207 8.40035536 0.64609245 13 4 C14.65944933 4.7339872 16.32021166 5.46618021 18 6.15234375 C20.4561921 7.19334704 22.85153191 8.33214126 25.25 9.5 C26.08015625 9.9021875 26.9103125 10.304375 27.765625 10.71875 C29.90312696 11.94445042 31.36509227 13.17399916 33 15 C36.523423 13.79911935 36.523423 13.79911935 39.41015625 11.546875 C41.21915632 9.78676682 42.80247649 9.03229924 45.125 8.0625 C46.31029297 7.55783203 46.31029297 7.55783203 47.51953125 7.04296875 C48.74736328 6.52669922 48.74736328 6.52669922 50 6 C51.60591937 5.2956494 53.21015612 4.58744711 54.8125 3.875 C55.52019531 3.56304687 56.22789062 3.25109375 56.95703125 2.9296875 C58.34725766 2.29704145 59.71627344 1.61608829 61.0625 0.89453125 C63.7684499 -0.35478836 66.06175348 -0.1958831 69 0 C70.57657432 1.57657432 70.32217152 3.12125887 70.4375 5.3125 C70.38939391 11.98962525 67.64685095 17.50463056 64 23 C61.796875 24.84765625 61.796875 24.84765625 60 26 C61.06734375 26.20753906 62.1346875 26.41507813 63.234375 26.62890625 C71.89975514 28.39148981 80.2753682 30.57260465 88.625 33.5 C89.4406543 33.78431885 90.25630859 34.0686377 91.09667969 34.36157227 C103.07334712 38.67528578 115.90947797 44.94138767 123 56 C124.32842199 60.36152423 124.1538174 64.85403058 124.125 69.375 C124.12016602 70.17010986 124.11533203 70.96521973 124.11035156 71.78442383 C123.89862691 92.9971169 121.08128833 111.65128298 107.1484375 128.38671875 C100.23300366 136.798401 95.56240199 144.46431347 92.15234375 154.84375 C87.62493468 167.24424671 75.22478445 174.50093128 64.40234375 180.9609375 C58.50792682 184.49352721 52.76160486 188.25599684 47 192 C46.08347656 192.59296875 45.16695313 193.1859375 44.22265625 193.796875 C43.02962891 194.57804687 43.02962891 194.57804687 41.8125 195.375 C41.13832031 195.81585938 40.46414063 196.25671875 39.76953125 196.7109375 C37.98581443 198.01033386 36.521329 199.40581863 35 201 C34.34 201.61875 33.68 202.2375 33 202.875 C30.88125034 204.94103693 30.88125034 204.94103693 29.5625 207.6875 C28 210 28 210 25.3125 210.8125 C24.549375 210.874375 23.78625 210.93625 23 211 C22.5978125 210.0409375 22.5978125 210.0409375 22.1875 209.0625 C21.11332248 206.66868314 21.11332248 206.66868314 18 206 C16.5625 203.8125 16.5625 203.8125 15 201 C12.38965486 196.61834922 9.63062547 193.62639564 5.73046875 190.44140625 C3.3349496 188.44604154 1.20342624 186.20342624 -1 184 C-1.928125 183.278125 -2.85625 182.55625 -3.8125 181.8125 C-4.534375 181.214375 -5.25625 180.61625 -6 180 C-6 179.34 -6 178.68 -6 178 C-7.65 177.34 -9.3 176.68 -11 176 C-11 175.34 -11 174.68 -11 174 C-11.57363281 173.73960937 -12.14726562 173.47921875 -12.73828125 173.2109375 C-15.1744207 171.90661413 -17.09306786 170.42471842 -19.1875 168.625 C-19.88230469 168.03976563 -20.57710938 167.45453125 -21.29296875 166.8515625 C-23 165 -23 165 -23.48828125 162.8984375 C-23.65714844 162.27195313 -23.82601562 161.64546875 -24 161 C-25.30972652 160.28807397 -26.6463479 159.62437827 -28 159 C-29.4921875 157.3359375 -29.4921875 157.3359375 -30.875 155.375 C-31.63876953 154.30958984 -31.63876953 154.30958984 -32.41796875 153.22265625 C-32.94003906 152.48917969 -33.46210938 151.75570312 -34 151 C-35.05949148 149.60188171 -36.12190422 148.20597141 -37.1875 146.8125 C-42.0494373 140.31725564 -45.696753 133.51274237 -48.125 125.75 C-48.45757812 124.71359375 -48.79015625 123.6771875 -49.1328125 122.609375 C-50.84769166 115.47176987 -51.06430716 108.21376412 -51.4296875 100.90234375 C-51.46627472 100.17755829 -51.50286194 99.45277283 -51.54055786 98.70602417 C-51.84471102 92.63466885 -51.84471102 92.63466885 -51.97412109 89.65600586 C-52.43773559 78.47491615 -52.43773559 78.47491615 -55.36352539 67.72119141 C-56.61231476 64.34414306 -56.29938881 61.87057299 -55.15234375 58.53515625 C-50.89033158 49.86038549 -45.41538052 45.41033925 -37 41 C-35.88238281 40.39671875 -34.76476562 39.7934375 -33.61328125 39.171875 C-27.84239684 36.29738639 -21.73739487 34.38565621 -15.625 32.375 C-14.45710938 31.98054688 -13.28921875 31.58609375 -12.0859375 31.1796875 C-5.44563685 28.97617966 1.09460827 27.14662263 8 26 C6.88625 24.7934375 6.88625 24.7934375 5.75 23.5625 C0.77804416 17.55942832 -1.73250109 10.75746835 -2 3 C-1.34 2.01 -0.68 1.02 0 0 Z M10 12 C11.24145018 16.96580074 12.66670254 19.24244707 17 22 C20.17921787 23.25556887 20.17921787 23.25556887 23 24 C23.33 22.35 23.66 20.7 24 19 C22.04480616 17.82807953 20.0857461 16.6626071 18.125 15.5 C17.03445313 14.8503125 15.94390625 14.200625 14.8203125 13.53125 C12.24192328 11.84095147 12.24192328 11.84095147 10 12 Z M50.9375 15.5 C49.94266602 16.00080078 49.94266602 16.00080078 48.92773438 16.51171875 C47.28425967 17.33936788 45.64201482 18.16945831 44 19 C44.66 20.65 45.32 22.3 46 24 C51.21937743 22.6330202 54.23710261 20.76289739 58 17 C58.95547581 14.32891902 58.95547581 14.32891902 59 12 C56.36583689 12 53.31223464 14.29754395 50.9375 15.5 Z M32 24 C31.67 25.65 31.34 27.3 31 29 C32.98 29.99 32.98 29.99 35 31 C35.99 30.01 36.98 29.02 38 28 C37.34 26.68 36.68 25.36 36 24 C34.68 24 33.36 24 32 24 Z M-7.5625 38.625 C-8.43076416 38.89425293 -9.29902832 39.16350586 -10.19360352 39.44091797 C-25.03843127 43.89849458 -25.03843127 43.89849458 -38 52 C-39.051875 52.78375 -40.10375 53.5675 -41.1875 54.375 C-44.21056012 57.19652278 -45.07610962 59.02727135 -46 63 C-38.58354646 68.31238925 -31.75432601 73.20008288 -23 76 C-22.76925781 75.2265625 -22.53851563 74.453125 -22.30078125 73.65625 C-20.08706984 66.58637325 -17.80555001 59.66160485 -12.34765625 54.41015625 C-10.76969857 53.0841127 -10.76969857 53.0841127 -11 51 C-10.401875 50.731875 -9.80375 50.46375 -9.1875 50.1875 C-6.99556112 49.13168678 -6.99556112 49.13168678 -5.5625 47.5625 C-3.57559446 45.57559446 -1.43035001 44.42650979 1 43 C2.61076638 41.96856808 4.21450707 40.92611309 5.8125 39.875 C6.60269531 39.35679688 7.39289063 38.83859375 8.20703125 38.3046875 C8.79871094 37.87414062 9.39039063 37.44359375 10 37 C10 36.67 10 36.34 10 36 C3.61779667 35.69224737 -1.49566248 36.69858863 -7.5625 38.625 Z M59 36 C61.38151214 38.63219763 63.96303641 40.19228358 67 42 C68.70196405 43.2879728 70.36345179 44.62986661 72 46 C72.63292969 46.52851562 73.26585937 47.05703125 73.91796875 47.6015625 C83.41070656 55.68730915 88.82039011 63.61063849 91 76 C100.05389881 73.50689743 107.89166753 69.16055481 115 63 C114.58318127 58.1371148 112.63015855 56.13513693 109 53 C107.36368108 51.95107762 105.69514137 50.95093297 104 50 C103.13375 49.360625 102.2675 48.72125 101.375 48.0625 C96.8225584 45.28045235 92.04228646 43.6854834 87 42 C86.04996094 41.67515625 85.09992188 41.3503125 84.12109375 41.015625 C80.62276079 39.87724381 77.10853637 38.85496911 73.5625 37.875 C72.30566406 37.52179688 71.04882812 37.16859375 69.75390625 36.8046875 C66.04525465 36.00970079 62.7791939 35.85370862 59 36 Z M24.00805664 36.69995117 C23.31574951 37.14314697 22.62344238 37.58634277 21.91015625 38.04296875 C21.13188477 38.5342627 20.35361328 39.02555664 19.55175781 39.53173828 C18.73030273 40.07813965 17.90884766 40.62454102 17.0625 41.1875 C16.21655273 41.73905762 15.37060547 42.29061523 14.49902344 42.85888672 C3.06192428 50.44817244 -7.70898058 58.41796116 -14 71 C-14.0689472 72.37342831 -14.08467708 73.75002102 -14.0625 75.125 C-14.041875 76.40375 -14.02125 77.6825 -14 79 C-7.74890688 82.51946115 -2.11813483 84.01425667 4.9375 85.125 C6.82189574 85.4384184 8.7060149 85.75350459 10.58984375 86.0703125 C11.5025 86.22081055 12.41515625 86.37130859 13.35546875 86.52636719 C15.82382041 86.96844642 18.24490851 87.50454991 20.68359375 88.0859375 C33.9088175 91.08281509 47.15676677 88.73256636 60.25 86.1875 C60.92871155 86.05698242 61.6074231 85.92646484 62.30670166 85.79199219 C69.17220555 84.45307046 75.7284543 83.16427988 82 80 C82.48385808 72.09698469 81.27259599 66.52504484 76.0625 60.3125 C75.05145956 59.19935942 74.03147274 58.09423431 73 57 C72.319375 56.2575 71.63875 55.515 70.9375 54.75 C68.77381911 52.79570759 66.51337996 51.4712468 64 50 C62.33333333 48.66666667 60.66666667 47.33333333 59 46 C55.748428 43.69985968 55.748428 43.69985968 52 43 C52 42.34 52 41.68 52 41 C46.90904153 37.98935705 43.94232717 36.51441821 38 38 C30.93467409 38.53608504 30.93467409 38.53608504 28.01342773 36.8605957 C26.02072959 35.74071153 26.02072959 35.74071153 24.00805664 36.69995117 Z M109 76.75 C102.32251459 81.29796682 95.03901883 83.7271796 87.39697266 86.1730957 C85.01447666 86.99500586 82.74198369 87.96017918 80.4296875 88.9609375 C74.9215211 91.17840559 69.47368803 92.22144893 63.625 93.125 C62.61276367 93.28967773 61.60052734 93.45435547 60.55761719 93.62402344 C58.57780766 93.94581417 56.59735917 94.2637051 54.61621094 94.57714844 C51.48418372 95.08337008 48.36886045 95.66879503 45.25 96.25 C34.62570751 97.9419605 24.90575166 96.51136719 14.45507812 94.47070312 C11.80205607 93.96204894 9.14426812 93.48697507 6.484375 93.015625 C4.61450273 92.67752882 2.7447098 92.3389935 0.875 92 C-0.00140137 91.8462793 -0.87780273 91.69255859 -1.78076172 91.53417969 C-6.92058706 90.57954187 -11.26091669 89.20134256 -16 87 C-17.34660999 86.53976621 -18.70012579 86.09873 -20.0625 85.6875 C-28.36628026 82.98627028 -36.55137242 79.55844612 -44 75 C-43.81030046 80.42301631 -43.5976122 85.84451361 -43.36523438 91.26586914 C-43.28952788 93.10319512 -43.21968475 94.94077386 -43.15625 96.77856445 C-42.68374884 113.78034293 -42.68374884 113.78034293 -38 130 C-35.12910434 132.35872631 -32.6010979 133.22437891 -29 134 C-27.88625 134.391875 -26.7725 134.78375 -25.625 135.1875 C-20.77951265 136.27355751 -15.94725816 136.66004374 -11 137 C-11.66 138.98 -12.32 140.96 -13 143 C-17.95 143 -22.9 143 -28 143 C-24.39117264 149.01471226 -21.08270579 154.15369913 -16 159 C-14.83064827 160.1639754 -13.66413869 161.33081082 -12.5 162.5 C-11.90445313 163.09296875 -11.30890625 163.6859375 -10.6953125 164.296875 C-9.23627109 165.7626401 -7.80301154 167.25398791 -6.375 168.75 C-4.14942697 171.03189869 -4.14942697 171.03189869 -1.6953125 172.3359375 C1.3789623 174.23396803 3.84762035 176.42378398 6.5 178.875 C7.4178125 179.71804687 8.335625 180.56109375 9.28125 181.4296875 C13.52672702 185.44337124 16.99562188 188.99270313 20 194 C20.66 194 21.32 194 22 194 C22.66 195.32 23.32 196.64 24 198 C27.26304118 196.56192592 29.48722688 194.76261966 32.0625 192.3125 C36.22774445 188.51902944 40.60315683 185.54312776 45.421875 182.640625 C48.06614641 181.03240371 48.06614641 181.03240371 50.515625 178.921875 C52.99119566 177.0068109 55.10266203 176.11436076 58 175 C59.63458575 173.94138574 61.23852268 172.83429123 62.8125 171.6875 C65.91489669 169.45303572 69.01080232 167.36349031 72.3125 165.4375 C76.06633889 163.1532167 78.38518984 160.51365116 81 157 C79.989375 157.33 78.97875 157.66 77.9375 158 C74.24520089 159.07001321 70.84751793 159.15704155 67 159 C66.67 157.35 66.34 155.7 66 154 C67.64559818 153.24948419 69.29149416 152.49962132 70.9375 151.75 C72.44570313 151.04423828 72.44570313 151.04423828 73.984375 150.32421875 C77 149 77 149 79.453125 148.26953125 C86.53460946 146.02871187 88.78692942 140.83394369 92.01171875 134.63671875 C94.74443546 129.44551202 98.62662047 122.68668977 104 120 C104 119.01 104 118.02 104 117 C103.27554688 117.2165625 102.55109375 117.433125 101.8046875 117.65625 C92.20210896 120.42179262 92.20210896 120.42179262 87 120 C87 118.02 87 116.04 87 114 C88.134375 113.63648438 89.26875 113.27296875 90.4375 112.8984375 C102.5674431 109.54031174 102.5674431 109.54031174 112 102 C115.40931212 92.97120101 115.39046104 83.51568023 115 74 C112.26021578 74 111.21276615 75.15364728 109 76.75 Z " fill="#141414" transform="translate(302,37)"/>
<path d="M0 0 C3.41020529 3.4610091 4.75421142 6.66860061 6 11.3125 C7.31185886 15.8860001 8.79506052 19.90548745 11.05078125 24.078125 C12.77371159 27.56652716 13.86530991 31.28646879 15 35 C18.38133145 28.63127862 21.36500801 22.4837869 23.29296875 15.52734375 C24.09667542 12.65442545 24.98526839 9.82728227 25.9375 7 C26.38416016 5.63875 26.38416016 5.63875 26.83984375 4.25 C28.22919984 1.55549122 29.15963603 0.95385357 32 0 C38.33333333 -0.44444444 38.33333333 -0.44444444 42 2 C40.125 5.875 40.125 5.875 39 7 C38.78055407 11.32658851 38.81421128 15.65888219 38.81469727 19.99047852 C38.81252633 22.16117411 38.79442018 24.33134862 38.77539062 26.50195312 C38.77245356 27.89062327 38.77047086 29.27929582 38.76953125 30.66796875 C38.76542236 31.92891357 38.76131348 33.1898584 38.75708008 34.48901367 C39.09841204 39.42237547 40.26412856 42.89619284 43 47 C41.0882704 48.99484828 39.60004201 49.9350135 36.8359375 50.234375 C33.24745057 50.25775277 30.43020796 50.14340265 27 49 C27 47.35 27 45.7 27 44 C27.99 43.67 28.98 43.34 30 43 C30 34.09 30 25.18 30 16 C27.29497357 22.49206344 24.91335341 28.23236185 22.8125 34.76171875 C18.80736761 45.79508826 18.80736761 45.79508826 14 49 C10.59155332 46.17921654 9.20245652 43.42892178 7.78125 39.2734375 C6.93516878 36.81134116 5.97961582 34.4119329 5 32 C3.2653962 27.69017671 1.61352531 23.35651833 0 19 C-1.17031656 23.70029576 -1.25453342 28.30990903 -1.3125 33.125 C-1.34150391 33.93582031 -1.37050781 34.74664062 -1.40039062 35.58203125 C-1.42417012 37.79535394 -1.40628397 39.82360155 -1 42 C0.84257946 44.108696 0.84257946 44.108696 3 45 C2.6875 46.9375 2.6875 46.9375 2 49 C-3.33646866 50.77882289 -7.95258476 50.44723163 -13 48 C-13 47.01 -13 46.02 -13 45 C-11.02 44.34 -9.04 43.68 -7 43 C-7 30.79 -7 18.58 -7 6 C-8.32 5.67 -9.64 5.34 -11 5 C-10.6875 3.0625 -10.6875 3.0625 -10 1 C-6.37671381 -0.20776206 -3.80388473 -0.40040892 0 0 Z " fill="#1A1A1A" transform="translate(246,268)"/>
<path d="M0 0 C0.99 0.639375 1.98 1.27875 3 1.9375 C3.515625 1.298125 4.03125 0.65875 4.5625 0 C7.67707449 -2.63540919 9.98363218 -2.83515843 14 -3.0625 C15.83219646 -1.23030354 15.23901328 1.69463741 15.31640625 4.16015625 C15.35830078 5.42021484 15.40019531 6.68027344 15.44335938 7.97851562 C15.48317596 9.31900736 15.52288814 10.6595022 15.5625 12 C15.60568042 13.34441523 15.64929456 14.6888166 15.69335938 16.03320312 C15.79985358 19.3345234 15.9018646 22.63592236 16 25.9375 C21.85275067 26.48185333 21.85275067 26.48185333 26.98046875 23.95703125 C29.63608008 19.9864557 29.58258715 17.27465422 29.3125 12.625 C29.27866211 11.51415039 29.27866211 11.51415039 29.24414062 10.38085938 C29.1855815 8.56552643 29.09590886 6.75124319 29 4.9375 C28.01 4.6075 27.02 4.2775 26 3.9375 C26.33 2.2875 26.66 0.6375 27 -1.0625 C28.4774746 -1.42366046 29.95704675 -1.77625048 31.4375 -2.125 C32.26121094 -2.32222656 33.08492188 -2.51945312 33.93359375 -2.72265625 C34.95646484 -2.89087891 34.95646484 -2.89087891 36 -3.0625 C37 -2.0625 37 -2.0625 37.11352539 0.62133789 C37.10828857 1.78914795 37.10305176 2.95695801 37.09765625 4.16015625 C37.09443359 5.42021484 37.09121094 6.68027344 37.08789062 7.97851562 C37.07953403 9.31901109 37.07106907 10.65950588 37.0625 12 C37.0574866 13.34439942 37.05292342 14.6888006 37.04882812 16.03320312 C37.03699488 19.33467941 37.02050971 22.63606803 37 25.9375 C38.98 26.4325 38.98 26.4325 41 26.9375 C40.6875 28.8125 40.6875 28.8125 40 30.9375 C36.5647952 33.22763653 35.014669 33.11592973 31 32.9375 C30.505 30.9575 30.505 30.9575 30 28.9375 C29.34 28.9375 28.68 28.9375 28 28.9375 C27.67 29.9275 27.34 30.9175 27 31.9375 C23.26547837 33.80476081 19.06650753 33.48551327 15 32.9375 C12.13027635 31.60860601 11.12920482 30.44886979 9 27.9375 C7.85191502 23.05450568 7.69570353 18.05725677 7.4375 13.0625 C7.39431641 12.27875 7.35113281 11.495 7.30664062 10.6875 C7.20146649 8.77099351 7.10032075 6.85426667 7 4.9375 C6.01 4.6075 5.02 4.2775 4 3.9375 C4 5.9175 4 7.8975 4 9.9375 C2.02 10.2675 0.04 10.5975 -2 10.9375 C-5 6.1875 -5 6.1875 -5 3.9375 C-9.66493434 2.9889866 -9.66493434 2.9889866 -14.3125 3.5625 C-16.69746969 5.50580863 -17.22133404 6.95261384 -18 9.9375 C-18.54146896 15.51011804 -18.14276876 20.08047499 -14.6875 24.6875 C-12.37453035 26.40081085 -10.88555074 26.80328834 -8 26.9375 C-4.75599476 25.60173314 -2.48216332 24.41966332 0 21.9375 C2.625 22.3125 2.625 22.3125 5 22.9375 C4.67858142 25.87971624 4.50245871 27.47395609 2.28515625 29.51953125 C-3.57682222 32.76473902 -8.3215839 33.85665483 -15 32.9375 C-18.125 31.9375 -18.125 31.9375 -20 30.9375 C-20 30.2775 -20 29.6175 -20 28.9375 C-20.928125 28.628125 -20.928125 28.628125 -21.875 28.3125 C-24 26.9375 -24 26.9375 -25.25 24.5 C-26.85185607 16.89118368 -27.02462861 9.73773455 -23 2.9375 C-16.30345742 -3.75904258 -8.10510235 -4.60107831 0 0 Z " fill="#161616" transform="translate(374,285.0625)"/>
<path d="M0 0 C3.48242391 2.52646441 4.65226822 3.95680465 6 8 C6.1464714 9.55266653 6.24694074 11.10995662 6.31640625 12.66796875 C6.35830078 13.56064453 6.40019531 14.45332031 6.44335938 15.37304688 C6.48267578 16.30181641 6.52199219 17.23058594 6.5625 18.1875 C6.60568359 19.12787109 6.64886719 20.06824219 6.69335938 21.03710938 C6.79938665 23.35792854 6.90145029 25.67885325 7 28 C7.99 28.33 8.98 28.66 10 29 C9.125 33.875 9.125 33.875 8 35 C5.1875 35.3125 5.1875 35.3125 2 35 C-0.375 33 -0.375 33 -2 31 C-2 31.66 -2 32.32 -2 33 C-6.23051718 35.11525859 -10.34121188 35.83549416 -15 35 C-19.43099695 32.70537658 -19.43099695 32.70537658 -21 30 C-21.85458408 24.77330273 -21.97567478 20.46351217 -19 16 C-18.01 16 -17.02 16 -16 16 C-16 15.34 -16 14.68 -16 14 C-12.57767028 12.85922343 -9.91326783 12.90184883 -6.3125 12.9375 C-4.54326172 12.95103516 -4.54326172 12.95103516 -2.73828125 12.96484375 C-1.83464844 12.97644531 -0.93101562 12.98804688 0 13 C-1.53736823 8.00119345 -1.53736823 8.00119345 -5.3125 4.75 C-9.25437734 5.11668626 -11.07620643 7.44945667 -14 10 C-15.32 10 -16.64 10 -18 10 C-18.33 8.35 -18.66 6.7 -19 5 C-12.64855957 -0.18143824 -8.22448801 -0.99790455 0 0 Z M-12.84375 19.28125 C-14.70470674 22.04753705 -14.18268024 24.77264913 -14 28 C-11.64304648 29.48400777 -10.31400019 30.01570001 -7.5 29.875 C-4.33012842 28.76554495 -2.99697622 27.71018202 -1 25 C-0.19234122 21.35278304 -0.19234122 21.35278304 0 18 C-1.77007714 17.91885894 -3.54122098 17.86074495 -5.3125 17.8125 C-6.29863281 17.77769531 -7.28476562 17.74289062 -8.30078125 17.70703125 C-11.00042086 17.78214937 -11.00042086 17.78214937 -12.84375 19.28125 Z " fill="#202020" transform="translate(312,283)"/>
<path d="M0 0 C1.98 0.66 3.96 1.32 6 2 C6 7.94 6 13.88 6 20 C5.67 20 5.34 20 5 20 C4.67 14.39 4.34 8.78 4 3 C3.01 2.67 2.02 2.34 1 2 C1 3.98 1 5.96 1 8 C-0.98 8.33 -2.96 8.66 -5 9 C-8 4.25 -8 4.25 -8 2 C-12.66493434 1.0514866 -12.66493434 1.0514866 -17.3125 1.625 C-19.69746969 3.56830863 -20.22133404 5.01511384 -21 8 C-21.54146896 13.57261804 -21.14276876 18.14297499 -17.6875 22.75 C-15.37453035 24.46331085 -13.88555074 24.86578834 -11 25 C-7.75599476 23.66423314 -5.48216332 22.48216332 -3 20 C-0.375 20.375 -0.375 20.375 2 21 C1.67858142 23.94221624 1.50245871 25.53645609 -0.71484375 27.58203125 C-6.57682222 30.82723902 -11.3215839 31.91915483 -18 31 C-21.125 30 -21.125 30 -23 29 C-23 28.34 -23 27.68 -23 27 C-23.928125 26.690625 -23.928125 26.690625 -24.875 26.375 C-27 25 -27 25 -28.25 22.5625 C-29.85185607 14.95368368 -30.02462861 7.80023455 -26 1 C-17.68412074 -7.31587926 -9.05246408 -5.53206139 0 0 Z " fill="#222222" transform="translate(377,287)"/>
<path d="M0 0 C2.25 2.0625 2.25 2.0625 3 5 C2.6875 8.8125 2.6875 8.8125 2 12 C-1 11 -1 11 -2.875 8.5 C-5.27135597 5.68075768 -6.3967764 5.30026863 -10 5 C-10.49094588 7.84670413 -10.49094588 7.84670413 -10 11 C-7.43884722 13.11524107 -7.43884722 13.11524107 -4.125 14.625 C1.69126907 17.5537596 1.69126907 17.5537596 3.359375 19.96484375 C4.41409581 23.3155117 4.57298434 26.56209395 4 30 C2.20636089 32.8100346 0.98119065 34.50940468 -2 36 C-4.71760108 36.07181821 -7.40859388 36.09299506 -10.125 36.0625 C-10.87910156 36.05798828 -11.63320313 36.05347656 -12.41015625 36.04882812 C-14.27347127 36.03703499 -16.13674555 36.01909942 -18 36 C-18.36256858 34.5437328 -18.71479793 33.08488815 -19.0625 31.625 C-19.25972656 30.81289063 -19.45695312 30.00078125 -19.66015625 29.1640625 C-20 27 -20 27 -19 25 C-17.68 25 -16.36 25 -15 25 C-14.38125 25.825 -13.7625 26.65 -13.125 27.5 C-11.20321801 30.33453587 -11.20321801 30.33453587 -7.875 30.375 C-5.06266243 30.16790317 -5.06266243 30.16790317 -3 29 C-3.04124887 26.58501541 -3.04124887 26.58501541 -4 24 C-6.64484373 22.26377386 -6.64484373 22.26377386 -9.875 21 C-14.53445548 19.02394177 -16.86096704 17.67229043 -19 13 C-19.5625426 9.14256502 -19.3564248 7.56009611 -17.25 4.25 C-12.29089743 -0.70910257 -6.76286821 -1.00969728 0 0 Z " fill="#1F1F1F" transform="translate(435,282)"/>
<path d="M0 0 C0.66 1.32 1.32 2.64 2 4 C2.66 4 3.32 4 4 4 C4.33 3.01 4.66 2.02 5 1 C8.465 0.505 8.465 0.505 12 0 C15 3.36 15 3.36 15 6.125 C14 8 14 8 11.5625 9.3125 C9 10 9 10 7 9 C7 8.34 7 7.68 7 7 C4.11097225 9.60944442 2.61489994 11.15687538 2 15 C1.93101758 17.59373914 1.90565248 20.15810197 1.9375 22.75 C1.94201172 23.44738281 1.94652344 24.14476562 1.95117188 24.86328125 C1.9628998 26.57555803 1.98083347 28.28779033 2 30 C3.65 30.33 5.3 30.66 7 31 C6.6875 32.9375 6.6875 32.9375 6 35 C3.17283905 35.94238698 1.36823877 36.13465647 -1.5625 36.125 C-2.74005859 36.12886719 -2.74005859 36.12886719 -3.94140625 36.1328125 C-6 36 -6 36 -8 35 C-7.67 33.35 -7.34 31.7 -7 30 C-6.34 30 -5.68 30 -5 30 C-5.33 22.41 -5.66 14.82 -6 7 C-7.32 7 -8.64 7 -10 7 C-9.875 5.1875 -9.875 5.1875 -9 3 C-5.79116175 1.04679411 -3.7794561 0 0 0 Z " fill="#1E1E1E" transform="translate(333,282)"/>
<path d="M0 0 C5.5870155 1.35900377 9.87263487 5.30895231 13 10 C12.625 12.6875 12.625 12.6875 12 15 C9.83203125 15.72265625 9.83203125 15.72265625 7 16 C4.32421875 14.55859375 4.32421875 14.55859375 1.6875 12.4375 C0.80449219 11.75558594 -0.07851563 11.07367188 -0.98828125 10.37109375 C-3 8 -3 8 -3.48046875 4.84765625 C-3.32191406 3.90792969 -3.16335938 2.96820313 -3 2 C-2.01 1.34 -1.02 0.68 0 0 Z " fill="#0F0F0F" transform="translate(294,191)"/>
<path d="M0 0 C1.32 0 2.64 0 4 0 C4.86625 1.2375 4.86625 1.2375 5.75 2.5 C7.67625273 5.16454462 7.67625273 5.16454462 10.03125 5.33203125 C12.02383214 5.31449091 14.01422378 5.16548135 16 5 C14.60804085 7.7839183 12.84424221 7.97898997 10 9 C12.31 9.33 14.62 9.66 17 10 C17 10.33 17 10.66 17 11 C11.72 11 6.44 11 1 11 C-1.125 2.25 -1.125 2.25 0 0 Z " fill="#3E3E3E" transform="translate(416,307)"/>
</svg>
